<svg xmlns="http://www.w3.org/2000/svg" viewBox="0 0 648 227.23"><defs><style>.a{fill:#74bf08;}.b{fill:#2e2724;}</style></defs><path class="a" d="M97.84,141.8l9.68,9.69L117,142a36.06,36.06,0,0,1-9.25,1.07A36.91,36.91,0,0,1,97.84,141.8Z"/><path class="a" d="M120.32,115.36a13.74,13.74,0,0,1-3.17,2.35,18.19,18.19,0,0,1-3.8,1.63,16.91,16.91,0,0,1-5.15.72,14.1,14.1,0,0,1-5.34-1,13.55,13.55,0,0,1-4.25-2.71,12.62,12.62,0,0,1-2.85-4,11.91,11.91,0,0,1-1-4.93,12.21,12.21,0,0,1,1-4.93,12.35,12.35,0,0,1,2.75-4,13,13,0,0,1,9.28-3.71,15.61,15.61,0,0,1,4.83.68,30.68,30.68,0,0,1,3.67,1.4,32,32,0,0,1,3.16,2.08l9.5-16.74A32.56,32.56,0,0,0,123.12,79a43.27,43.27,0,0,0-6.92-2.26,38,38,0,0,0-9.18-1A34.06,34.06,0,0,0,94.72,78a29.85,29.85,0,0,0-10.13,6.38,30.18,30.18,0,0,0-6.87,10,32.49,32.49,0,0,0-2.54,13.07,33.23,33.23,0,0,0,2.44,12.89,29.4,29.4,0,0,0,6.79,10,30.58,30.58,0,0,0,10.31,6.46A38.86,38.86,0,0,0,117.06,138a47.84,47.84,0,0,0,7-2.35,26.63,26.63,0,0,0,5.79-3.53Zm-.4,12.69a19.3,19.3,0,0,1-3.16,1.48,28.67,28.67,0,0,1-3.77,1,24.23,24.23,0,0,1-5,.46,26.62,26.62,0,0,1-9.39-1.65,23.29,23.29,0,0,1-7.74-4.75,22.2,22.2,0,0,1-5.22-7.43,24.39,24.39,0,0,1-1.89-9.77A23.22,23.22,0,0,1,91,90.21a23.11,23.11,0,0,1,7.56-4.75,24.83,24.83,0,0,1,9-1.66,26.2,26.2,0,0,1,4.7.37,36.16,36.16,0,0,1,3.57.82c1.1.37,2.14.77,3.13,1.2l.46.2-1.74,3-.39-.23a11.55,11.55,0,0,0-2.53-1,18.68,18.68,0,0,0-3.06-.76,25.6,25.6,0,0,0-4.14-.31,21.91,21.91,0,0,0-8.51,1.6A19.12,19.12,0,0,0,92.6,93a19.49,19.49,0,0,0-4.11,6.45,22.54,22.54,0,0,0,0,16,19.08,19.08,0,0,0,4.15,6.45,19.43,19.43,0,0,0,6.59,4.33,23.1,23.1,0,0,0,8.79,1.6,21.07,21.07,0,0,0,4.33-.4,19.6,19.6,0,0,0,3.19-.93,10.69,10.69,0,0,0,2.62-1.31l.4-.27,1.73,3Z"/><path class="b" d="M141,84.91H149v44.62H141Z"/><path class="b" d="M162.64,107.41a25.79,25.79,0,0,1,1.76-9.74,21.77,21.77,0,0,1,4.88-7.46,21.34,21.34,0,0,1,7.44-4.76,26,26,0,0,1,9.49-1.67,26.62,26.62,0,0,1,9.58,1.54,20.94,20.94,0,0,1,7.49,4.7,21.49,21.49,0,0,1,4.92,7.43,25.56,25.56,0,0,1,1.77,9.71,24.64,24.64,0,0,1-1.77,9.51,21.76,21.76,0,0,1-4.92,7.38,22.55,22.55,0,0,1-7.49,4.82,26.86,26.86,0,0,1-9.58,1.8,26.17,26.17,0,0,1-9.49-1.67,21.26,21.26,0,0,1-12.32-12.07A24.72,24.72,0,0,1,162.64,107.41Zm8.31-.5a19,19,0,0,0,1.11,6.61,15.33,15.33,0,0,0,3.12,5.23,14.34,14.34,0,0,0,4.82,3.47,15.13,15.13,0,0,0,6.27,1.26,15.34,15.34,0,0,0,6.3-1.26,14.26,14.26,0,0,0,4.85-3.47,15.33,15.33,0,0,0,3.12-5.23,19,19,0,0,0,1.11-6.61,17.28,17.28,0,0,0-1.11-6.24,15.34,15.34,0,0,0-3.12-5.08,14.22,14.22,0,0,0-4.85-3.4,15.67,15.67,0,0,0-6.3-1.23A15.45,15.45,0,0,0,180,92.19a14.29,14.29,0,0,0-4.82,3.4,15.34,15.34,0,0,0-3.12,5.08A17.28,17.28,0,0,0,171,106.91Z"/><path class="b" d="M223.83,84.91h10.52L256,118.06h.13V84.91H264v44.62H254l-22-34.22h-.13v34.22h-7.94Z"/><path class="b" d="M296.55,84.91h13.8a29.64,29.64,0,0,1,9.83,1.42A21.84,21.84,0,0,1,326.9,90a18,18,0,0,1,4.22,4.89,24.25,24.25,0,0,1,2.27,5.13,23.63,23.63,0,0,1,.91,4.45c.13,1.32.19,2.26.19,2.8s-.06,1.48-.19,2.81a23.7,23.7,0,0,1-.91,4.44,24.31,24.31,0,0,1-2.27,5.14,18.15,18.15,0,0,1-4.22,4.88,21.84,21.84,0,0,1-6.72,3.62,29.64,29.64,0,0,1-9.83,1.42h-13.8Zm4.16,40.84h8.57a30,30,0,0,0,8.26-1.1,19,19,0,0,0,6.68-3.37,15.94,15.94,0,0,0,4.47-5.77,21.77,21.77,0,0,0,0-16.58,15.82,15.82,0,0,0-4.47-5.76,18.71,18.71,0,0,0-6.68-3.37,29.66,29.66,0,0,0-8.26-1.11h-8.57Z"/><path class="b" d="M350.12,84.91h4.16v44.62h-4.16Z"/><path class="b" d="M409.61,126.63a28.88,28.88,0,0,1-8.1,3.12,39.87,39.87,0,0,1-8.53.92,24.45,24.45,0,0,1-9.36-1.74,20.89,20.89,0,0,1-7.28-4.85,22.17,22.17,0,0,1-4.73-7.44,26.87,26.87,0,0,1,0-18.81,22.19,22.19,0,0,1,4.73-7.4,21.41,21.41,0,0,1,7.28-4.89A24.27,24.27,0,0,1,393,83.78q9.94,0,16.07,6.17l-3,3.15a13,13,0,0,0-2.49-2.23,17.2,17.2,0,0,0-3.21-1.77A21,21,0,0,0,396.69,88a17.71,17.71,0,0,0-3.71-.41,19.56,19.56,0,0,0-7.85,1.51,17.62,17.62,0,0,0-6,4.16,18.45,18.45,0,0,0-3.78,6.24,23.41,23.41,0,0,0,0,15.5,18.25,18.25,0,0,0,3.78,6.24,17.48,17.48,0,0,0,6,4.16,19.56,19.56,0,0,0,7.85,1.51,38.86,38.86,0,0,0,6.74-.56,17.29,17.29,0,0,0,5.73-2.08v-15H394.74v-3.78h14.87Z"/><path class="b" d="M428.14,84.91h4.16v44.62h-4.16Z"/><path class="b" d="M460.72,88.69H445.47V84.91h34.66v3.78H464.88v40.84h-4.16Z"/><path class="b" d="M502.7,84.91H507l18.78,44.62H521.1l-4.85-11.85H492.61l-5,11.85h-4.35Zm1.95,4.54-10.4,24.45h20.48Z"/><path class="b" d="M538.49,84.91h4.16v40.84h20.8v3.78h-25Z"/></svg>