<?xml version="1.0" encoding="iso-8859-1"?>
<!-- Generator: Adobe Illustrator 19.0.0, SVG Export Plug-In . SVG Version: 6.00 Build 0)  -->
<svg version="1.1" id="Layer_1" xmlns="http://www.w3.org/2000/svg" xmlns:xlink="http://www.w3.org/1999/xlink" x="0px" y="0px"
	 viewBox="0 0 512 512" style="enable-background:new 0 0 512 512;" xml:space="preserve">
<circle style="fill:#E6F3FF;" cx="256" cy="256" r="256"/>
<path style="fill:#CFDBE6;" d="M509.366,292.728l-191.34-192.422l-41.798,46.18l-23.866,20.258l-55.518-55.52l-46.833,54.303
	l-42.053,56.467l72.221,71.964v7.168l-43.765-43.767l-14.272,57.284l-16.213,64.66l132.055,132.056
	c5.953,0.414,11.957,0.64,18.015,0.64C384.912,512,491.551,416.709,509.366,292.728z"/>
<polygon style="fill:#38C1A7;" points="305.776,108.959 248.354,162.552 247.956,162.233 247.956,177.688 248.961,178.493 
	302.399,128.619 370.791,260.144 381.499,254.578 "/>
<polygon style="fill:#4CDBC4;" points="182.758,110.075 112.547,209.537 122.406,216.497 185.225,127.504 247.956,177.688 
	247.956,162.233 "/>
<rect x="288.84" y="196.387" style="fill:#FFD15D;" width="30.486" height="182.924"/>
<rect x="166.909" y="196.387" style="fill:#FC6F58;" width="30.486" height="182.924"/>
<rect x="354.9" y="318.336" style="fill:#F1543F;" width="30.486" height="60.975"/>
<rect x="105.934" y="257.362" style="fill:#4CDBC4;" width="30.486" height="121.949"/>
<rect x="232.951" y="257.362" style="fill:#2C9984;" width="30.486" height="121.949"/>
<rect x="247.949" y="257.362" style="fill:#238270;" width="15.484" height="121.949"/>
<circle style="fill:#2C9984;" cx="248.191" cy="170.529" r="20.323"/>
<path style="fill:#238270;" d="M248.198,150.199c-0.081,0-0.16,0.012-0.241,0.012v40.624c0.081,0,0.16,0.012,0.241,0.012
	c11.224,0,20.323-9.099,20.323-20.325C268.521,159.298,259.422,150.199,248.198,150.199z"/>
<circle style="fill:#FFD15D;" cx="304.097" cy="115.093" r="20.323"/>
<circle style="fill:#FC6F58;" cx="182.148" cy="125.259" r="20.323"/>
<circle style="fill:#4CDBC4;" cx="121.173" cy="206.558" r="20.323"/>
<circle style="fill:#F1543F;" cx="370.14" cy="247.208" r="20.323"/>
<rect x="303.7" y="196.387" style="fill:#F9B54C;" width="15.636" height="182.924"/>
<rect x="182.441" y="196.387" style="fill:#F1543F;" width="14.939" height="182.924"/>
<rect x="370.933" y="318.336" style="fill:#C1321F;" width="14.457" height="60.975"/>
<rect x="120.387" y="257.362" style="fill:#1EA8A4;" width="16.029" height="121.949"/>
<path style="fill:#F9B54C;" d="M304.088,94.77c-0.133,0-0.26,0.017-0.393,0.019v40.608c0.133,0.002,0.26,0.021,0.393,0.021
	c11.224,0,20.323-9.099,20.323-20.325S315.313,94.77,304.088,94.77z"/>
<path style="fill:#F1543F;" d="M202.468,125.256c0-11.123-8.938-20.146-20.021-20.309v40.617
	C193.531,145.401,202.468,136.378,202.468,125.256z"/>
<path style="fill:#1EA8A4;" d="M121.172,186.227c-0.265,0-0.522,0.029-0.786,0.04v40.569c0.262,0.01,0.521,0.04,0.786,0.04
	c11.224,0,20.323-9.099,20.323-20.323C141.496,195.327,132.398,186.227,121.172,186.227z"/>
<path style="fill:#C1321F;" d="M390.465,247.199c0-10.959-8.68-19.868-19.537-20.283v40.569
	C381.785,267.066,390.465,258.158,390.465,247.199z"/>
<g>
</g>
<g>
</g>
<g>
</g>
<g>
</g>
<g>
</g>
<g>
</g>
<g>
</g>
<g>
</g>
<g>
</g>
<g>
</g>
<g>
</g>
<g>
</g>
<g>
</g>
<g>
</g>
<g>
</g>
</svg>
