<?xml version="1.0" encoding="utf-8"?>
<svg width="100%" height="100%" viewBox="2.081 2.051 19.888 19.906" id="magicoon-Filled" preserveAspectRatio="xMidYMid slice" xmlns="http://www.w3.org/2000/svg">
  <defs>
    <style>.cls-1{fill:#E6F3FF;}</style>
  </defs>
  <title>question-circle</title>
  <g id="question-circle-Filled">
    <path id="question-circle-Filled-2" data-name="question-circle-Filled" class="cls-1" d="M12,2A10,10,0,1,0,22,12,10.016,10.016,0,0,0,12,2Zm0,16a1,1,0,1,1,1-1A1,1,0,0,1,12,18Zm2.04-4.68c-.92.61-1.07.94-1.09,1A1,1,0,0,1,12,15a1.185,1.185,0,0,1-.32-.05,1.015,1.015,0,0,1-.63-1.27,4.585,4.585,0,0,1,1.88-2.03,1.87,1.87,0,0,0,1.04-2.02,2.029,2.029,0,0,0-1.6-1.6A2,2,0,0,0,10,10a1,1,0,0,1-2,0A3.982,3.982,0,0,1,9.43,6.94a3.995,3.995,0,0,1,6.51,2.34A3.906,3.906,0,0,1,14.04,13.32Z"/>
  </g>
</svg>